# xmcd
#
# Track frame offsets:
#	150
#	14153
#	26490
#	36280
#	75118
#	87115
#	99265
#	110760
#	121983
#	134538
#	146080
#	166333
#	176935
#	195930
#	213995
#	229883
#
# Disc length: 3240 seconds
#
# Revision: 0
# Processed by: cddbd v1.5.2PL0 Copyright (c) Steve Scherf et al.
# Submitted via: dBpowerAMP V4.0
#
DISCID=d50ca610
DTITLE=C.C.R - Creedence Creawater Revival
DYEAR=1900
DGENRE=Country
TTITLE0=Proud Mary
TTITLE1=Hey Tonight
TTITLE2=Travelin' Band
TTITLE3=Suzie-Q
TTITLE4=Have you everseen the Rain
TTITLE5=Up Around the Bend
TTITLE6=Green River
TTITLE7=Who'll Stop the Rain
TTITLE8=Down on the Corner
TTITLE9=Lookin' out my Back Door
TTITLE10=I Put a Spell on You
TTITLE11=Bad Moon Rising
TTITLE12=The Midnight Special
TTITLE13=Someday Never Comes
TTITLE14=Long as I Can See the Light
TTITLE15=Sweet Hitch-hiker
EXTD=
EXTT0=
EXTT1=
EXTT2=
EXTT3=
EXTT4=
EXTT5=
EXTT6=
EXTT7=
EXTT8=
EXTT9=
EXTT10=
EXTT11=
EXTT12=
EXTT13=
EXTT14=
EXTT15=
PLAYORDER=
